# xmcd CD database file
#
# Track frame offsets:
#	150
#	30076
#	49477
#	81803
#	106782
#	138270
#	177016
#	203094
#
# Disc length: 3151 seconds
#
# Revision: 0
# Processed by: cddbd v1.5.1PL2 Copyright (c) Steve Scherf et al.
# Submitted via: CDex 1.51
#
DISCID=5a0c4d08
DTITLE=Bill Evans Trio - 1976 in Köln   (2|2)
DYEAR=1976
DGENRE=Jazz
TTITLE0=Bill Evans - Sareen Jurea
TTITLE1=Bill Evans - Morning Glory
TTITLE2=Bill Evans - 34 Skydoo
TTITLE3=Bill Evans - Turn Out The Stars
TTITLE4=Bill Evans - Sugar Plum
TTITLE5=Bill Evans - Since We Met
TTITLE6=Bill Evans - Time Remembered
TTITLE7=Bill Evans with Earl Hines, Te - Blues in D
EXTD=YEAR: 1976
EXTT0=
EXTT1=
EXTT2=
EXTT3=
EXTT4=
EXTT5=
EXTT6=
EXTT7=
PLAYORDER=
